<?xml version="1.0" standalone="no"?>
<!DOCTYPE svg PUBLIC "-//W3C//DTD SVG 20010904//EN"
 "http://www.w3.org/TR/2001/REC-SVG-20010904/DTD/svg10.dtd">
<svg version="1.0" xmlns="http://www.w3.org/2000/svg"
 width="512.000000pt" height="512.000000pt" viewBox="0 0 512.000000 512.000000"
 preserveAspectRatio="xMidYMid meet">
<metadata>
Created by potrace 1.14, written by Peter Selinger 2001-2017
</metadata>
<g transform="translate(0.000000,512.000000) scale(0.100000,-0.100000)"
fill="#000000" stroke="none">
<path d="M2680 4382 c0 -5 -144 -95 -320 -201 -176 -106 -322 -196 -325 -202
-7 -11 -15 -42 -22 -84 -2 -16 -8 -39 -13 -50 -5 -11 -11 -33 -14 -50 -6 -36
-18 -94 -41 -195 -9 -41 -20 -93 -25 -115 -5 -22 -14 -60 -19 -85 -13 -55 -40
-184 -47 -225 -3 -16 -9 -39 -14 -50 -5 -11 -11 -36 -14 -55 -14 -83 -19 -110
-21 -110 -1 0 -56 27 -120 61 -322 165 -355 180 -372 174 -10 -3 -51 -45 -90
-93 -76 -91 -107 -127 -151 -177 -23 -26 -206 -240 -267 -314 -11 -13 -31 -34
-44 -47 -24 -22 -24 -24 -13 -93 7 -38 12 -105 13 -148 1 -82 11 -179 21 -189
6 -6 51 14 307 138 90 43 165 78 166 76 1 -2 10 -21 20 -43 21 -48 77 -166
136 -290 40 -83 44 -98 51 -200 20 -319 28 -423 35 -453 l8 -32 868 0 c478 0
873 2 878 5 8 6 31 52 76 155 18 41 56 126 85 190 11 25 24 54 28 65 5 11 27
61 50 110 23 50 45 99 50 110 9 24 50 112 79 174 12 25 21 50 21 57 0 18 25
24 57 14 15 -5 96 -25 178 -45 83 -19 166 -40 185 -45 46 -13 118 -30 150 -36
40 -7 126 83 92 98 -4 2 -19 26 -33 53 -15 28 -45 84 -67 125 -23 41 -56 104
-74 140 -18 36 -35 67 -38 70 -5 5 -20 32 -82 150 -31 58 -60 111 -139 258
-25 46 -39 50 -114 32 -22 -6 -71 -17 -110 -26 -38 -8 -99 -22 -135 -30 -36
-8 -92 -21 -125 -28 -64 -14 -171 -39 -270 -62 -33 -8 -89 -21 -125 -29 -36
-7 -83 -18 -104 -24 -46 -11 -56 -8 -56 20 0 10 -4 19 -10 19 -5 0 -10 5 -10
12 0 9 -37 90 -122 264 -15 31 -17 46 -10 60 15 28 42 91 42 98 0 6 8 24 59
138 11 26 21 51 21 54 0 6 8 24 49 116 11 26 21 52 21 57 0 4 15 11 33 14 17
3 109 22 202 42 94 20 185 39 203 42 17 3 32 9 32 12 0 4 -30 36 -67 71 -38
35 -109 102 -158 149 -50 47 -161 153 -248 235 -86 82 -157 155 -157 162 0 8
-7 14 -15 14 -8 0 -15 -4 -15 -8z"/>
<path d="M3568 3918 c-78 -21 -150 -109 -178 -220 -30 -115 59 -276 172 -314
48 -16 55 -16 104 0 90 28 145 96 175 213 21 87 -14 199 -84 265 -33 32 -121
72 -146 67 -3 -1 -23 -6 -43 -11z"/>
<path d="M4414 2120 c-50 -11 -134 -81 -134 -110 0 -6 -4 -10 -10 -10 -5 0
-10 -8 -10 -18 0 -10 -5 -23 -12 -30 -7 -7 -12 -43 -12 -94 1 -65 6 -93 23
-130 75 -155 235 -194 345 -84 62 61 78 99 83 193 5 76 3 86 -27 147 -36 76
-84 120 -146 135 -48 12 -55 12 -100 1z"/>
<path d="M549 2062 c-42 -27 -61 -49 -98 -112 -21 -35 -22 -216 -1 -256 36
-68 92 -120 154 -140 47 -16 53 -16 104 1 54 19 132 84 132 111 0 8 5 14 10
14 6 0 10 9 10 19 0 11 5 23 10 26 12 8 13 169 1 193 -5 9 -14 29 -21 44 -17
36 -58 79 -101 106 -55 34 -141 31 -200 -6z"/>
<path d="M1497 1213 c-4 -3 -7 -114 -7 -245 l0 -238 895 0 895 0 -2 243 -3
242 -886 3 c-487 1 -889 -1 -892 -5z"/>
</g>
</svg>
